<svg width="162" height="25" viewBox="0 0 162 25" fill="none" xmlns="http://www.w3.org/2000/svg">
<path d="M37.0696 5.45455V20H34.4347V5.45455H37.0696ZM39.9229 20V5.45455H42.494V10.8949H42.6005C42.7331 10.6297 42.9201 10.348 43.1616 10.0497C43.4031 9.74669 43.7298 9.48864 44.1417 9.27557C44.5536 9.05777 45.0792 8.94886 45.7184 8.94886C46.5612 8.94886 47.3211 9.1643 47.9982 9.59517C48.68 10.0213 49.2198 10.6534 49.6175 11.4915C50.02 12.3248 50.2212 13.3475 50.2212 14.5597C50.2212 15.7576 50.0247 16.7756 49.6317 17.6136C49.2388 18.4517 48.7037 19.0909 48.0266 19.5312C47.3496 19.9716 46.5825 20.1918 45.7255 20.1918C45.1005 20.1918 44.582 20.0876 44.1701 19.8793C43.7582 19.6709 43.4267 19.42 43.1758 19.1264C42.9296 18.8281 42.7378 18.5464 42.6005 18.2812H42.4513V20H39.9229ZM42.4442 14.5455C42.4442 15.2509 42.5437 15.8688 42.7425 16.3991C42.9461 16.9295 43.2373 17.3437 43.6161 17.642C43.9996 17.9356 44.4637 18.0824 45.0082 18.0824C45.5763 18.0824 46.0522 17.9309 46.4357 17.6278C46.8192 17.3201 47.1081 16.901 47.3022 16.3707C47.5011 15.8357 47.6005 15.2273 47.6005 14.5455C47.6005 13.8684 47.5034 13.267 47.3093 12.7415C47.1152 12.2159 46.8263 11.804 46.4428 11.5057C46.0593 11.2074 45.5811 11.0582 45.0082 11.0582C44.4589 11.0582 43.9925 11.2027 43.609 11.4915C43.2255 11.7803 42.9343 12.1851 42.7354 12.706C42.5413 13.2268 42.4442 13.84 42.4442 14.5455ZM52.407 20V9.09091H54.8999V10.9091H55.0135C55.2124 10.2794 55.5533 9.79403 56.0362 9.45312C56.5239 9.10748 57.0803 8.93466 57.7053 8.93466C57.8473 8.93466 58.0059 8.94176 58.1811 8.95597C58.361 8.96544 58.5102 8.98201 58.6286 9.00568V11.3707C58.5196 11.3329 58.3468 11.2997 58.1101 11.2713C57.8781 11.2382 57.6532 11.2216 57.4354 11.2216C56.9666 11.2216 56.5452 11.3234 56.1712 11.527C55.8018 11.7259 55.5107 12.0028 55.2976 12.358C55.0845 12.7131 54.978 13.1226 54.978 13.5866V20H52.407ZM63.2805 20.2202C62.5893 20.2202 61.9666 20.0971 61.4126 19.8509C60.8634 19.5999 60.4278 19.2306 60.1058 18.7429C59.7886 18.2552 59.63 17.6539 59.63 16.9389C59.63 16.3234 59.7436 15.8144 59.9709 15.4119C60.1982 15.0095 60.5083 14.6875 60.9013 14.446C61.2943 14.2045 61.737 14.0223 62.2294 13.8991C62.7266 13.7713 63.2403 13.679 63.7706 13.6222C64.4098 13.5559 64.9283 13.4967 65.326 13.4446C65.7237 13.3878 66.0125 13.3026 66.1925 13.1889C66.3771 13.0705 66.4695 12.8883 66.4695 12.642V12.5994C66.4695 12.0644 66.3108 11.6501 65.9936 11.3565C65.6764 11.063 65.2195 10.9162 64.6229 10.9162C63.9931 10.9162 63.4936 11.0535 63.1243 11.3281C62.7597 11.6027 62.5135 11.9271 62.3857 12.3011L59.9851 11.9602C60.1745 11.2973 60.487 10.7434 60.9226 10.2983C61.3582 9.84848 61.8909 9.51231 62.5206 9.28977C63.1503 9.0625 63.8464 8.94886 64.6087 8.94886C65.1342 8.94886 65.6574 9.01042 66.1783 9.13352C66.6991 9.25663 67.175 9.46023 67.6058 9.74432C68.0367 10.0237 68.3823 10.4048 68.6428 10.8878C68.9079 11.3707 69.0405 11.9744 69.0405 12.6989V20H66.5689V18.5014H66.4837C66.3274 18.8045 66.1072 19.0885 65.8232 19.3537C65.5438 19.6141 65.1911 19.8248 64.7649 19.9858C64.3435 20.142 63.8487 20.2202 63.2805 20.2202ZM63.9482 18.331C64.4643 18.331 64.9117 18.2292 65.2905 18.0256C65.6693 17.8172 65.9605 17.5426 66.1641 17.2017C66.3724 16.8608 66.4766 16.4891 66.4766 16.0866V14.8011C66.3961 14.8674 66.2588 14.929 66.0646 14.9858C65.8752 15.0426 65.6622 15.0923 65.4254 15.1349C65.1887 15.1776 64.9543 15.2154 64.7223 15.2486C64.4903 15.2817 64.2891 15.3101 64.1186 15.3338C63.7351 15.3859 63.3918 15.4711 63.0888 15.5895C62.7857 15.7079 62.5466 15.8736 62.3714 16.0866C62.1963 16.295 62.1087 16.5649 62.1087 16.8963C62.1087 17.3698 62.2815 17.7273 62.6271 17.9688C62.9728 18.2102 63.4131 18.331 63.9482 18.331ZM74.1967 13.608V20H71.6257V5.45455H74.1399V10.9446H74.2678C74.5234 10.3291 74.9188 9.84375 75.4538 9.48864C75.9936 9.12879 76.6802 8.94886 77.5135 8.94886C78.2711 8.94886 78.9316 9.10748 79.495 9.42472C80.0585 9.74195 80.4941 10.206 80.8018 10.8168C81.1143 11.4276 81.2706 12.1733 81.2706 13.054V20H78.6996V13.4517C78.6996 12.7178 78.5102 12.1473 78.1314 11.7401C77.7573 11.3281 77.2318 11.1222 76.5547 11.1222C76.1001 11.1222 75.6929 11.2216 75.3331 11.4205C74.978 11.6146 74.6986 11.8963 74.495 12.2656C74.2962 12.6349 74.1967 13.0824 74.1967 13.608ZM83.8913 20V9.09091H86.4624V20H83.8913ZM85.1839 7.54261C84.7768 7.54261 84.4264 7.40767 84.1328 7.13778C83.8393 6.86316 83.6925 6.53409 83.6925 6.15057C83.6925 5.76231 83.8393 5.43324 84.1328 5.16335C84.4264 4.88873 84.7768 4.75142 85.1839 4.75142C85.5959 4.75142 85.9463 4.88873 86.2351 5.16335C86.5286 5.43324 86.6754 5.76231 86.6754 6.15057C86.6754 6.53409 86.5286 6.86316 86.2351 7.13778C85.9463 7.40767 85.5959 7.54261 85.1839 7.54261ZM89.1062 20V9.09091H91.5636V10.9446H91.6914C91.9187 10.3196 92.2951 9.83191 92.8207 9.48153C93.3462 9.12642 93.9736 8.94886 94.7028 8.94886C95.4414 8.94886 96.064 9.12879 96.5707 9.48864C97.082 9.84375 97.4419 10.3291 97.6502 10.9446H97.7638C98.0053 10.3385 98.4125 9.85559 98.9854 9.49574C99.5631 9.13116 100.247 8.94886 101.038 8.94886C102.042 8.94886 102.861 9.2661 103.495 9.90057C104.13 10.535 104.447 11.4607 104.447 12.6776V20H101.869V13.0753C101.869 12.3982 101.689 11.9034 101.329 11.5909C100.969 11.2737 100.529 11.1151 100.008 11.1151C99.3879 11.1151 98.9026 11.3092 98.5522 11.6974C98.2066 12.081 98.0337 12.5805 98.0337 13.196V20H95.5124V12.9688C95.5124 12.4053 95.342 11.9555 95.0011 11.6193C94.6649 11.2831 94.2246 11.1151 93.68 11.1151C93.3107 11.1151 92.9746 11.2098 92.6715 11.3991C92.3685 11.5838 92.127 11.8466 91.9471 12.1875C91.7672 12.5237 91.6772 12.9167 91.6772 13.3665V20H89.1062Z" fill="#1A1920"/>
<path d="M108.639 20.1562C108.208 20.1562 107.839 20.0047 107.531 19.7017C107.223 19.3987 107.072 19.0294 107.077 18.5938C107.072 18.1676 107.223 17.803 107.531 17.5C107.839 17.197 108.208 17.0455 108.639 17.0455C109.056 17.0455 109.418 17.197 109.726 17.5C110.038 17.803 110.197 18.1676 110.202 18.5938C110.197 18.8826 110.121 19.1454 109.974 19.3821C109.832 19.6188 109.643 19.8082 109.406 19.9503C109.174 20.0876 108.919 20.1562 108.639 20.1562Z" fill="#0057FE"/>
<path d="M121.943 11.7711L119.599 12.0267C119.533 11.79 119.417 11.5675 119.251 11.3591C119.09 11.1508 118.873 10.9827 118.598 10.8549C118.323 10.727 117.987 10.6631 117.589 10.6631C117.054 10.6631 116.605 10.7791 116.24 11.0111C115.88 11.2431 115.703 11.5438 115.707 11.9131C115.703 12.2303 115.819 12.4884 116.055 12.6873C116.297 12.8861 116.695 13.0495 117.249 13.1773L119.109 13.575C120.142 13.7976 120.909 14.1503 121.411 14.6333C121.917 15.1162 122.173 15.7483 122.178 16.5296C122.173 17.2161 121.972 17.8222 121.574 18.3478C121.181 18.8686 120.634 19.2758 119.933 19.5694C119.232 19.8629 118.428 20.0097 117.518 20.0097C116.183 20.0097 115.108 19.7303 114.294 19.1716C113.48 18.6082 112.994 17.8246 112.838 16.8208L115.345 16.5793C115.459 17.0717 115.7 17.4434 116.07 17.6944C116.439 17.9453 116.92 18.0708 117.511 18.0708C118.122 18.0708 118.612 17.9453 118.982 17.6944C119.356 17.4434 119.543 17.1333 119.543 16.764C119.543 16.4515 119.422 16.1934 119.18 15.9898C118.944 15.7862 118.574 15.63 118.072 15.5211L116.212 15.1304C115.165 14.9126 114.391 14.5457 113.889 14.0296C113.387 13.5088 113.139 12.8506 113.143 12.0552C113.139 11.3828 113.321 10.8004 113.69 10.308C114.064 9.81084 114.583 9.42731 115.246 9.15743C115.913 8.88281 116.683 8.74549 117.554 8.74549C118.832 8.74549 119.839 9.01775 120.572 9.56226C121.311 10.1068 121.768 10.843 121.943 11.7711ZM129.745 8.88754V10.8762H123.474V8.88754H129.745ZM125.022 6.2739H127.593V16.5154C127.593 16.861 127.645 17.1262 127.749 17.3108C127.858 17.4908 128 17.6139 128.175 17.6802C128.351 17.7464 128.545 17.7796 128.758 17.7796C128.919 17.7796 129.066 17.7677 129.198 17.7441C129.335 17.7204 129.44 17.6991 129.511 17.6802L129.944 19.6901C129.807 19.7374 129.61 19.7895 129.354 19.8463C129.103 19.9032 128.796 19.9363 128.431 19.9458C127.787 19.9647 127.207 19.8677 126.691 19.6546C126.175 19.4368 125.765 19.1006 125.462 18.6461C125.164 18.1915 125.017 17.6233 125.022 16.9415V6.2739ZM136.537 20.0097C135.471 20.0097 134.548 19.7753 133.767 19.3066C132.985 18.8378 132.379 18.182 131.949 17.3392C131.522 16.4964 131.309 15.5116 131.309 14.3847C131.309 13.2578 131.522 12.2706 131.949 11.4231C132.379 10.5755 132.985 9.91737 133.767 9.44862C134.548 8.97987 135.471 8.74549 136.537 8.74549C137.602 8.74549 138.525 8.97987 139.306 9.44862C140.088 9.91737 140.691 10.5755 141.118 11.4231C141.548 12.2706 141.764 13.2578 141.764 14.3847C141.764 15.5116 141.548 16.4964 141.118 17.3392C140.691 18.182 140.088 18.8378 139.306 19.3066C138.525 19.7753 137.602 20.0097 136.537 20.0097ZM136.551 17.95C137.128 17.95 137.611 17.7914 138 17.4742C138.388 17.1522 138.677 16.7213 138.866 16.1816C139.06 15.6418 139.157 15.0405 139.157 14.3776C139.157 13.71 139.06 13.1063 138.866 12.5665C138.677 12.022 138.388 11.5888 138 11.2668C137.611 10.9448 137.128 10.7838 136.551 10.7838C135.959 10.7838 135.467 10.9448 135.074 11.2668C134.685 11.5888 134.394 12.022 134.2 12.5665C134.011 13.1063 133.916 13.71 133.916 14.3776C133.916 15.0405 134.011 15.6418 134.2 16.1816C134.394 16.7213 134.685 17.1522 135.074 17.4742C135.467 17.7914 135.959 17.95 136.551 17.95ZM143.946 19.7966V8.88754H146.439V10.7057H146.553C146.751 10.076 147.092 9.59067 147.575 9.24976C148.063 8.90411 148.619 8.73129 149.244 8.73129C149.386 8.73129 149.545 8.73839 149.72 8.7526C149.9 8.76207 150.049 8.77864 150.168 8.80231V11.1674C150.059 11.1295 149.886 11.0963 149.649 11.0679C149.417 11.0348 149.192 11.0182 148.974 11.0182C148.506 11.0182 148.084 11.12 147.71 11.3236C147.341 11.5225 147.05 11.7995 146.837 12.1546C146.624 12.5097 146.517 12.9193 146.517 13.3833V19.7966H143.946ZM156.256 20.0097C155.162 20.0097 154.218 19.7824 153.422 19.3279C152.632 18.8686 152.023 18.2199 151.597 17.3819C151.171 16.5391 150.958 15.5471 150.958 14.406C150.958 13.2838 151.171 12.299 151.597 11.4515C152.028 10.5992 152.629 9.93631 153.401 9.46282C154.173 8.9846 155.079 8.74549 156.121 8.74549C156.793 8.74549 157.428 8.8544 158.025 9.0722C158.626 9.28527 159.156 9.61671 159.615 10.0665C160.079 10.5163 160.444 11.0892 160.709 11.7853C160.974 12.4766 161.107 13.3004 161.107 14.2569V15.0452H152.165V13.3123H158.642C158.638 12.8198 158.531 12.3819 158.323 11.9983C158.114 11.6101 157.823 11.3047 157.449 11.0821C157.08 10.8596 156.649 10.7483 156.157 10.7483C155.631 10.7483 155.169 10.8762 154.772 11.1319C154.374 11.3828 154.064 11.7142 153.841 12.1262C153.623 12.5334 153.512 12.9808 153.507 13.4685V14.9813C153.507 15.6158 153.623 16.1603 153.855 16.6148C154.087 17.0646 154.412 17.4103 154.828 17.6517C155.245 17.8885 155.733 18.0069 156.292 18.0069C156.666 18.0069 157.004 17.9548 157.307 17.8506C157.61 17.7417 157.873 17.5831 158.096 17.3748C158.318 17.1664 158.486 16.9084 158.6 16.6006L161 16.8705C160.849 17.505 160.56 18.0589 160.134 18.5324C159.712 19.0012 159.173 19.3658 158.515 19.6262C157.856 19.8819 157.104 20.0097 156.256 20.0097Z" fill="#94A3B8"/>
<path d="M14.7133 2.32608L20.7022 5.67579C20.8406 5.75315 20.9557 5.86579 21.0358 6.00206C21.116 6.13838 21.1582 6.29341 21.1582 6.45133C21.1582 6.60924 21.116 6.76427 21.0358 6.9006C20.9557 7.03687 20.8406 7.1495 20.7022 7.22686L14.7133 10.5767C14.3311 10.7905 13.9001 10.9028 13.4616 10.9028C13.0232 10.9028 12.5921 10.7905 12.21 10.5767L6.22102 7.22686C6.08271 7.1495 5.96756 7.03687 5.88742 6.9006C5.80729 6.76427 5.76504 6.60924 5.76504 6.45133C5.76504 6.29341 5.80729 6.13838 5.88742 6.00206C5.96756 5.86579 6.08271 5.75315 6.22102 5.67579L12.21 2.32608C12.5921 2.1123 13.0232 2.00003 13.4616 2.00003C13.9001 2.00003 14.3311 2.1123 14.7133 2.32608Z" fill="#44BCFF"/>
<path opacity="0.7" d="M14.6808 5.47064L23.2579 10.268C23.3962 10.3453 23.5113 10.4579 23.5915 10.5942C23.6716 10.7305 23.7139 10.8856 23.7139 11.0435C23.7139 11.2014 23.6716 11.3565 23.5915 11.4928C23.5113 11.6291 23.3962 11.7417 23.2579 11.8191L14.6808 16.6163C14.2986 16.8301 13.8676 16.9424 13.4292 16.9424C12.9908 16.9424 12.5597 16.8301 12.1776 16.6163L3.60049 11.8191C3.46217 11.7417 3.34703 11.6291 3.26689 11.4928C3.18675 11.3565 3.14451 11.2014 3.14451 11.0435C3.14451 10.8856 3.18675 10.7305 3.26689 10.5942C3.34703 10.4579 3.46217 10.3453 3.60049 10.268L12.1776 5.47064C12.5597 5.2569 12.9908 5.14464 13.4292 5.14464C13.8676 5.14464 14.2986 5.2569 14.6808 5.47064Z" fill="#3304EC"/>
<path opacity="0.4" d="M14.8766 8.61501L26.7987 15.2834C26.9368 15.3607 27.0517 15.4731 27.1317 15.6092C27.2117 15.7452 27.2539 15.9 27.2539 16.0577C27.2539 16.2153 27.2117 16.3701 27.1317 16.5062C27.0517 16.6423 26.9368 16.7547 26.7987 16.832L14.8765 23.5002C14.495 23.7136 14.0646 23.8257 13.6269 23.8257C13.1892 23.8257 12.7589 23.7136 12.3773 23.5002L0.455231 16.832C0.317143 16.7547 0.202183 16.6423 0.122177 16.5062C0.0421716 16.3701 -1.07288e-06 16.2153 -1.07288e-06 16.0577C-1.07288e-06 15.9 0.0421716 15.7452 0.122177 15.6092C0.202183 15.4731 0.317143 15.3607 0.455231 15.2834L12.3773 8.61501C12.7589 8.40163 13.1892 8.28949 13.6269 8.28949C14.0646 8.28949 14.495 8.40163 14.8766 8.61501Z" fill="#8432EA"/>
</svg>
