<svg width="215" height="31" viewBox="0 0 215 31" fill="none" xmlns="http://www.w3.org/2000/svg">
<path d="M51.016 6.24776V22.9998H47.656V6.24776H51.016ZM57.6957 11.6478C58.1277 11.0078 58.7197 10.4878 59.4717 10.0878C60.2397 9.68776 61.1117 9.48776 62.0877 9.48776C63.2237 9.48776 64.2477 9.76776 65.1597 10.3278C66.0877 10.8878 66.8157 11.6878 67.3437 12.7278C67.8877 13.7518 68.1597 14.9438 68.1597 16.3038C68.1597 17.6638 67.8877 18.8718 67.3437 19.9278C66.8157 20.9678 66.0877 21.7758 65.1597 22.3518C64.2477 22.9278 63.2237 23.2158 62.0877 23.2158C61.0957 23.2158 60.2237 23.0238 59.4717 22.6398C58.7357 22.2398 58.1437 21.7278 57.6957 21.1038V22.9998H54.3357V5.23976H57.6957V11.6478ZM64.7277 16.3038C64.7277 15.5038 64.5597 14.8158 64.2237 14.2398C63.9037 13.6478 63.4717 13.1998 62.9277 12.8958C62.3997 12.5918 61.8237 12.4398 61.1997 12.4398C60.5917 12.4398 60.0157 12.5998 59.4717 12.9198C58.9437 13.2238 58.5117 13.6718 58.1757 14.2638C57.8557 14.8558 57.6957 15.5518 57.6957 16.3518C57.6957 17.1518 57.8557 17.8478 58.1757 18.4398C58.5117 19.0318 58.9437 19.4878 59.4717 19.8078C60.0157 20.1118 60.5917 20.2638 61.1997 20.2638C61.8237 20.2638 62.3997 20.1038 62.9277 19.7838C63.4717 19.4638 63.9037 19.0078 64.2237 18.4158C64.5597 17.8238 64.7277 17.1198 64.7277 16.3038ZM73.9613 11.7678C74.3933 11.0638 74.9533 10.5118 75.6413 10.1118C76.3453 9.71176 77.1453 9.51175 78.0413 9.51175V13.0398H77.1533C76.0973 13.0398 75.2973 13.2878 74.7533 13.7838C74.2253 14.2798 73.9613 15.1438 73.9613 16.3758V22.9998H70.6013V9.70376H73.9613V11.7678ZM79.4404 16.3038C79.4404 14.9598 79.7044 13.7678 80.2324 12.7278C80.7764 11.6878 81.5044 10.8878 82.4164 10.3278C83.3444 9.76776 84.3764 9.48776 85.5124 9.48776C86.5044 9.48776 87.3684 9.68776 88.1044 10.0878C88.8564 10.4878 89.4564 10.9918 89.9044 11.5998V9.70376H93.2884V22.9998H89.9044V21.0558C89.4724 21.6798 88.8724 22.1998 88.1044 22.6158C87.3524 23.0158 86.4804 23.2158 85.4884 23.2158C84.3684 23.2158 83.3444 22.9278 82.4164 22.3518C81.5044 21.7758 80.7764 20.9678 80.2324 19.9278C79.7044 18.8718 79.4404 17.6638 79.4404 16.3038ZM89.9044 16.3518C89.9044 15.5358 89.7444 14.8398 89.4244 14.2638C89.1044 13.6718 88.6724 13.2238 88.1284 12.9198C87.5844 12.5998 87.0004 12.4398 86.3764 12.4398C85.7524 12.4398 85.1764 12.5918 84.6484 12.8958C84.1204 13.1998 83.6884 13.6478 83.3524 14.2398C83.0324 14.8158 82.8724 15.5038 82.8724 16.3038C82.8724 17.1038 83.0324 17.8078 83.3524 18.4158C83.6884 19.0078 84.1204 19.4638 84.6484 19.7838C85.1924 20.1038 85.7684 20.2638 86.3764 20.2638C87.0004 20.2638 87.5844 20.1118 88.1284 19.8078C88.6724 19.4878 89.1044 19.0398 89.4244 18.4638C89.7444 17.8718 89.9044 17.1678 89.9044 16.3518ZM104.058 9.51175C105.066 9.51175 105.962 9.73575 106.746 10.1838C107.53 10.6158 108.138 11.2638 108.57 12.1278C109.018 12.9758 109.242 13.9998 109.242 15.1998V22.9998H105.882V15.6558C105.882 14.5998 105.618 13.7918 105.09 13.2318C104.562 12.6558 103.842 12.3678 102.93 12.3678C102.002 12.3678 101.266 12.6558 100.722 13.2318C100.194 13.7918 99.9301 14.5998 99.9301 15.6558V22.9998H96.5701V5.23976H99.9301V11.3598C100.362 10.7838 100.938 10.3358 101.658 10.0158C102.378 9.67976 103.178 9.51175 104.058 9.51175ZM114.141 8.11976C113.549 8.11976 113.053 7.93576 112.653 7.56776C112.269 7.18375 112.077 6.71175 112.077 6.15176C112.077 5.59175 112.269 5.12775 112.653 4.75975C113.053 4.37575 113.549 4.18375 114.141 4.18375C114.733 4.18375 115.221 4.37575 115.605 4.75975C116.005 5.12775 116.205 5.59175 116.205 6.15176C116.205 6.71175 116.005 7.18375 115.605 7.56776C115.221 7.93576 114.733 8.11976 114.141 8.11976ZM115.797 9.70376V22.9998H112.437V9.70376H115.797ZM135.629 9.51175C137.261 9.51175 138.573 10.0158 139.565 11.0238C140.573 12.0158 141.077 13.4078 141.077 15.1998V22.9998H137.717V15.6558C137.717 14.6158 137.453 13.8238 136.925 13.2798C136.397 12.7198 135.677 12.4398 134.765 12.4398C133.853 12.4398 133.125 12.7198 132.581 13.2798C132.053 13.8238 131.789 14.6158 131.789 15.6558V22.9998H128.429V15.6558C128.429 14.6158 128.165 13.8238 127.637 13.2798C127.109 12.7198 126.389 12.4398 125.477 12.4398C124.549 12.4398 123.813 12.7198 123.269 13.2798C122.741 13.8238 122.477 14.6158 122.477 15.6558V22.9998H119.117V9.70376H122.477V11.3118C122.909 10.7518 123.461 10.3118 124.133 9.99175C124.821 9.67175 125.573 9.51175 126.389 9.51175C127.429 9.51175 128.357 9.73575 129.173 10.1838C129.989 10.6158 130.621 11.2398 131.069 12.0558C131.501 11.2878 132.125 10.6718 132.941 10.2078C133.773 9.74375 134.669 9.51175 135.629 9.51175Z" fill="#1A1920"/>
<path d="M145.753 23.1678C145.145 23.1678 144.641 22.9838 144.241 22.6158C143.857 22.2318 143.665 21.7598 143.665 21.1998C143.665 20.6398 143.857 20.1758 144.241 19.8078C144.641 19.4238 145.145 19.2318 145.753 19.2318C146.345 19.2318 146.833 19.4238 147.217 19.8078C147.601 20.1758 147.793 20.6398 147.793 21.1998C147.793 21.7598 147.601 22.2318 147.217 22.6158C146.833 22.9838 146.345 23.1678 145.753 23.1678Z" fill="#0057FE"/>
<path d="M158.744 23.2158C157.656 23.2158 156.68 23.0238 155.816 22.6398C154.952 22.2398 154.264 21.7038 153.752 21.0318C153.256 20.3598 152.984 19.6158 152.936 18.7998H156.32C156.384 19.3118 156.632 19.7358 157.064 20.0718C157.512 20.4078 158.064 20.5758 158.72 20.5758C159.36 20.5758 159.856 20.4478 160.208 20.1918C160.576 19.9358 160.76 19.6078 160.76 19.2078C160.76 18.7758 160.536 18.4558 160.088 18.2478C159.656 18.0238 158.96 17.7838 158 17.5278C157.008 17.2878 156.192 17.0398 155.552 16.7838C154.928 16.5278 154.384 16.1358 153.92 15.6078C153.472 15.0798 153.248 14.3678 153.248 13.4718C153.248 12.7358 153.456 12.0638 153.872 11.4558C154.304 10.8478 154.912 10.3678 155.696 10.0158C156.496 9.66376 157.432 9.48776 158.504 9.48776C160.088 9.48776 161.352 9.88776 162.296 10.6878C163.24 11.4718 163.76 12.5358 163.856 13.8798H160.64C160.592 13.3518 160.368 12.9358 159.968 12.6318C159.584 12.3118 159.064 12.1518 158.408 12.1518C157.8 12.1518 157.328 12.2638 156.992 12.4878C156.672 12.7118 156.512 13.0238 156.512 13.4238C156.512 13.8718 156.736 14.2158 157.184 14.4558C157.632 14.6798 158.328 14.9118 159.272 15.1518C160.232 15.3918 161.024 15.6398 161.648 15.8958C162.272 16.1518 162.808 16.5518 163.256 17.0958C163.72 17.6238 163.96 18.3278 163.976 19.2078C163.976 19.9758 163.76 20.6638 163.328 21.2718C162.912 21.8798 162.304 22.3598 161.504 22.7118C160.72 23.0478 159.8 23.2158 158.744 23.2158ZM170.646 12.4638V18.8958C170.646 19.3438 170.75 19.6718 170.958 19.8798C171.182 20.0718 171.55 20.1678 172.062 20.1678H173.622V22.9998H171.51C168.678 22.9998 167.262 21.6238 167.262 18.8718V12.4638H165.678V9.70376H167.262V6.41575H170.646V9.70376H173.622V12.4638H170.646ZM181.943 23.2158C180.663 23.2158 179.511 22.9358 178.487 22.3758C177.463 21.7998 176.655 20.9918 176.063 19.9518C175.487 18.9118 175.199 17.7118 175.199 16.3518C175.199 14.9918 175.495 13.7918 176.087 12.7518C176.695 11.7118 177.519 10.9118 178.559 10.3518C179.599 9.77576 180.759 9.48776 182.039 9.48776C183.319 9.48776 184.479 9.77576 185.519 10.3518C186.559 10.9118 187.375 11.7118 187.967 12.7518C188.575 13.7918 188.879 14.9918 188.879 16.3518C188.879 17.7118 188.567 18.9118 187.943 19.9518C187.335 20.9918 186.503 21.7998 185.447 22.3758C184.407 22.9358 183.239 23.2158 181.943 23.2158ZM181.943 20.2878C182.551 20.2878 183.119 20.1438 183.647 19.8558C184.191 19.5518 184.623 19.1038 184.943 18.5118C185.263 17.9198 185.423 17.1998 185.423 16.3518C185.423 15.0878 185.087 14.1198 184.415 13.4478C183.759 12.7598 182.951 12.4158 181.991 12.4158C181.031 12.4158 180.223 12.7598 179.567 13.4478C178.927 14.1198 178.607 15.0878 178.607 16.3518C178.607 17.6158 178.919 18.5918 179.543 19.2798C180.183 19.9518 180.983 20.2878 181.943 20.2878ZM194.704 11.7678C195.136 11.0638 195.696 10.5118 196.384 10.1118C197.088 9.71176 197.888 9.51175 198.784 9.51175V13.0398H197.896C196.84 13.0398 196.04 13.2878 195.496 13.7838C194.968 14.2798 194.704 15.1438 194.704 16.3758V22.9998H191.344V9.70376H194.704V11.7678ZM213.407 16.0638C213.407 16.5438 213.375 16.9758 213.311 17.3598H203.591C203.671 18.3198 204.007 19.0718 204.599 19.6158C205.191 20.1598 205.919 20.4318 206.783 20.4318C208.031 20.4318 208.919 19.8958 209.447 18.8238H213.071C212.687 20.1038 211.951 21.1598 210.863 21.9918C209.775 22.8078 208.439 23.2158 206.855 23.2158C205.575 23.2158 204.423 22.9358 203.399 22.3758C202.391 21.7998 201.599 20.9918 201.023 19.9518C200.463 18.9118 200.183 17.7118 200.183 16.3518C200.183 14.9758 200.463 13.7678 201.023 12.7278C201.583 11.6878 202.367 10.8878 203.375 10.3278C204.383 9.76776 205.543 9.48776 206.855 9.48776C208.119 9.48776 209.247 9.75976 210.239 10.3038C211.247 10.8478 212.023 11.6238 212.567 12.6318C213.127 13.6238 213.407 14.7678 213.407 16.0638ZM209.927 15.1038C209.911 14.2398 209.599 13.5518 208.991 13.0398C208.383 12.5118 207.639 12.2478 206.759 12.2478C205.927 12.2478 205.223 12.5038 204.647 13.0158C204.087 13.5118 203.743 14.2078 203.615 15.1038H209.927Z" fill="#94A3B8"/>
<path d="M20.5149 0.657684L28.8652 5.32818C29.0581 5.43604 29.2186 5.59308 29.3303 5.78308C29.4421 5.97315 29.501 6.18931 29.501 6.4095C29.501 6.62968 29.4421 6.84584 29.3303 7.03591C29.2186 7.22591 29.0581 7.38295 28.8652 7.49081L20.5149 12.1615C19.982 12.4596 19.381 12.6162 18.7697 12.6162C18.1583 12.6162 17.5574 12.4596 17.0245 12.1615L8.67413 7.49081C8.48128 7.38295 8.32073 7.22591 8.20899 7.03591C8.09726 6.84584 8.03836 6.62968 8.03836 6.4095C8.03836 6.18931 8.09726 5.97315 8.20899 5.78308C8.32073 5.59308 8.48128 5.43604 8.67413 5.32818L17.0245 0.657684C17.5574 0.359604 18.1583 0.203073 18.7697 0.203073C19.381 0.203073 19.982 0.359604 20.5149 0.657684Z" fill="#44BCFF"/>
<path opacity="0.7" d="M20.4697 5.04235L32.4287 11.7312C32.6215 11.8391 32.7821 11.9961 32.8938 12.1861C33.0056 12.3762 33.0645 12.5924 33.0645 12.8125C33.0645 13.0327 33.0056 13.249 32.8938 13.439C32.7821 13.629 32.6215 13.786 32.4287 13.8939L20.4697 20.5827C19.9368 20.8807 19.3359 21.0374 18.7246 21.0374C18.1133 21.0374 17.5123 20.8807 16.9794 20.5827L5.02046 13.8939C4.82761 13.786 4.66706 13.629 4.55532 13.439C4.44359 13.249 4.38469 13.0327 4.38469 12.8125C4.38469 12.5924 4.44359 12.3762 4.55532 12.1861C4.66706 11.9961 4.82761 11.8391 5.02046 11.7312L16.9794 5.04235C17.5123 4.74434 18.1133 4.58781 18.7246 4.58781C19.3359 4.58781 19.9368 4.74434 20.4697 5.04235Z" fill="#3304EC"/>
<path opacity="0.4" d="M20.7423 9.42635L37.3653 18.724C37.5578 18.8318 37.7181 18.9885 37.8297 19.1783C37.9412 19.3679 38 19.5838 38 19.8036C38 20.0235 37.9412 20.2393 37.8297 20.429C37.7181 20.6187 37.5578 20.7755 37.3653 20.8832L20.7423 30.1807C20.2103 30.4782 19.6103 30.6345 19 30.6345C18.3897 30.6345 17.7897 30.4782 17.2577 30.1807L0.634727 20.8832C0.442193 20.7755 0.281905 20.6187 0.170353 20.429C0.0588012 20.2393 0 20.0235 0 19.8036C0 19.5838 0.0588012 19.3679 0.170353 19.1783C0.281905 18.9885 0.442193 18.8318 0.634727 18.724L17.2577 9.42635C17.7897 9.12883 18.3897 8.97248 19 8.97248C19.6103 8.97248 20.2103 9.12883 20.7423 9.42635Z" fill="#8432EA"/>
</svg>
